HIERARCHY
ROOT hip
{
  OFFSET 0 90.174 2.4664
  CHANNELS 6 Xposition Yposition Zposition Zrotation Xrotation Yrotation
  JOINT abdomen
  {
    OFFSET 0 -1.186 -1.5018
    CHANNELS 6 Xposition Yposition Zposition Zrotation Xrotation Yrotation
    JOINT abdomen2
    {
      OFFSET 0 9.964 0.2134
      CHANNELS 6 Xposition Yposition Zposition Zrotation Xrotation Yrotation
      JOINT chest
      {
        OFFSET 0 13.134 -3.2573
        CHANNELS 6 Xposition Yposition Zposition Zrotation Xrotation Yrotation
        JOINT neck
        {
          OFFSET 0 20.686 -1.6905
          CHANNELS 6 Xposition Yposition Zposition Zrotation Xrotation Yrotation
          JOINT head
          {
            OFFSET 0 7.238 -0.1237
            CHANNELS 6 Xposition Yposition Zposition Zrotation Xrotation Yrotation
            End Site
            {
              OFFSET 0 0 0
            }
          }
        }
        JOINT lCollar
        {
          OFFSET 1.7069 20.075 5.0056
          CHANNELS 6 Xposition Yposition Zposition Zrotation Xrotation Yrotation
          JOINT lShldr
          {
            OFFSET 13.6458 -0.047 -4.849
            CHANNELS 6 Xposition Yposition Zposition Zrotation Xrotation Yrotation
            JOINT lForeArm
            {
              OFFSET 28.3255 -0.9759 2.2888
              CHANNELS 6 Xposition Yposition Zposition Zrotation Xrotation Yrotation
              JOINT lHand
              {
                OFFSET 22.1583 -0.53 10.8316
                CHANNELS 6 Xposition Yposition Zposition Zrotation Xrotation Yrotation
                JOINT lThumb1
                {
                  OFFSET 0.786 0.112 2.5817
                  CHANNELS 6 Xposition Yposition Zposition Zrotation Xrotation Yrotation
                  JOINT lThumb2
                  {
                    OFFSET 0.3601 -0.878 4.2331
                    CHANNELS 6 Xposition Yposition Zposition Zrotation Xrotation Yrotation
                    JOINT lThumb2_End
                    {
                      OFFSET 1.8127 -1.216 2.2227
                      CHANNELS 6 Xposition Yposition Zposition Zrotation Xrotation Yrotation
                      End Site
                      {
                        OFFSET 0.0181 -0.0122 0.0222
                      }
                    }
                  }
                }
                JOINT lCarpal1
                {
                  OFFSET 0.9571 1.114 1.7695
                  CHANNELS 6 Xposition Yposition Zposition Zrotation Xrotation Yrotation
                  JOINT lIndex1
                  {
                    OFFSET 4.1246 0.487 4.1451
                    CHANNELS 6 Xposition Yposition Zposition Zrotation Xrotation Yrotation
                    JOINT lIndex2
                    {
                      OFFSET 3.4052 -1.454 2.7682
                      CHANNELS 6 Xposition Yposition Zposition Zrotation Xrotation Yrotation
                      JOINT lIndex2_End
                      {
                        OFFSET 1.4531 -1.795 1.2713
                        CHANNELS 6 Xposition Yposition Zposition Zrotation Xrotation Yrotation
                        End Site
                        {
                          OFFSET 0.0145 -0.0179 0.0127
                        }
                      }
                    }
                  }
                  JOINT lMid1
                  {
                    OFFSET 5.6954 0.21 2.1184
                    CHANNELS 6 Xposition Yposition Zposition Zrotation Xrotation Yrotation
                    JOINT lMid2
                    {
                      OFFSET 3.9766 -1.54 2.3863
                      CHANNELS 6 Xposition Yposition Zposition Zrotation Xrotation Yrotation
                      JOINT lMid2_End
                      {
                        OFFSET 1.4042 -1.926 1.125
                        CHANNELS 6 Xposition Yposition Zposition Zrotation Xrotation Yrotation
                        End Site
                        {
                          OFFSET 0.014 -0.0193 0.0113
                        }
                      }
                    }
                  }
                }
                JOINT lCarpal2
                {
                  OFFSET 2.0956 0.66 -0.3894
                  CHANNELS 6 Xposition Yposition Zposition Zrotation Xrotation Yrotation
                  JOINT lRing1
                  {
                    OFFSET 5.0395 -0.09 2.4971
                    CHANNELS 6 Xposition Yposition Zposition Zrotation Xrotation Yrotation
                    JOINT lRing2
                    {
                      OFFSET 3.7921 -1.552 1.4806
                      CHANNELS 6 Xposition Yposition Zposition Zrotation Xrotation Yrotation
                      JOINT lRing2_End
                      {
                        OFFSET 1.4655 -1.808 0.9609
                        CHANNELS 6 Xposition Yposition Zposition Zrotation Xrotation Yrotation
                        End Site
                        {
                          OFFSET 0.0147 -0.0181 0.0096
                        }
                      }
                    }
                  }
                  JOINT lPinky1
                  {
                    OFFSET 4.9141 -1.269 0.3591
                    CHANNELS 6 Xposition Yposition Zposition Zrotation Xrotation Yrotation
                    JOINT lPinky2
                    {
                      OFFSET 3.1477 -1.685 0.8462
                      CHANNELS 6 Xposition Yposition Zposition Zrotation Xrotation Yrotation
                      JOINT lPinky2_End
                      {
                        OFFSET 0.8055 -1.585 0.7955
                        CHANNELS 6 Xposition Yposition Zposition Zrotation Xrotation Yrotation
                        End Site
                        {
                          OFFSET 0.0081 -0.0158 0.008
                        }
                      }
                    }
                  }
                }
              }
            }
          }
        }
        JOINT rCollar
        {
          OFFSET -1.7069 20.075 5.0056
          CHANNELS 6 Xposition Yposition Zposition Zrotation Xrotation Yrotation
          JOINT rShldr
          {
            OFFSET -13.6458 -0.047 -4.849
            CHANNELS 6 Xposition Yposition Zposition Zrotation Xrotation Yrotation
            JOINT rForeArm
            {
              OFFSET -28.3255 -0.9759 2.2888
              CHANNELS 6 Xposition Yposition Zposition Zrotation Xrotation Yrotation
              JOINT rHand
              {
                OFFSET -22.1583 -0.53 10.8316
                CHANNELS 6 Xposition Yposition Zposition Zrotation Xrotation Yrotation
                JOINT rThumb1
                {
                  OFFSET -0.786 0.112 2.5817
                  CHANNELS 6 Xposition Yposition Zposition Zrotation Xrotation Yrotation
                  JOINT rThumb2
                  {
                    OFFSET -0.3601 -0.878 4.2331
                    CHANNELS 6 Xposition Yposition Zposition Zrotation Xrotation Yrotation
                    JOINT rThumb2_End
                    {
                      OFFSET -1.8127 -1.216 2.2227
                      CHANNELS 6 Xposition Yposition Zposition Zrotation Xrotation Yrotation
                      End Site
                      {
                        OFFSET -0.0181 -0.0122 0.0222
                      }
                    }
                  }
                }
                JOINT rCarpal1
                {
                  OFFSET -0.9571 1.114 1.7695
                  CHANNELS 6 Xposition Yposition Zposition Zrotation Xrotation Yrotation
                  JOINT rIndex1
                  {
                    OFFSET -4.1246 0.487 4.1451
                    CHANNELS 6 Xposition Yposition Zposition Zrotation Xrotation Yrotation
                    JOINT rIndex2
                    {
                      OFFSET -3.4052 -1.454 2.7682
                      CHANNELS 6 Xposition Yposition Zposition Zrotation Xrotation Yrotation
                      JOINT rIndex2_End
                      {
                        OFFSET -1.4531 -1.795 1.2713
                        CHANNELS 6 Xposition Yposition Zposition Zrotation Xrotation Yrotation
                        End Site
                        {
                          OFFSET -0.0145 -0.018 0.0127
                        }
                      }
                    }
                  }
                  JOINT rMid1
                  {
                    OFFSET -5.6954 0.21 2.1184
                    CHANNELS 6 Xposition Yposition Zposition Zrotation Xrotation Yrotation
                    JOINT rMid2
                    {
                      OFFSET -3.9766 -1.54 2.3863
                      CHANNELS 6 Xposition Yposition Zposition Zrotation Xrotation Yrotation
                      JOINT rMid2_End
                      {
                        OFFSET -1.4042 -1.926 1.125
                        CHANNELS 6 Xposition Yposition Zposition Zrotation Xrotation Yrotation
                        End Site
                        {
                          OFFSET -0.014 -0.0193 0.0113
                        }
                      }
                    }
                  }
                }
                JOINT rCarpal2
                {
                  OFFSET -2.0956 0.66 -0.3894
                  CHANNELS 6 Xposition Yposition Zposition Zrotation Xrotation Yrotation
                  JOINT rRing1
                  {
                    OFFSET -5.0395 -0.09 2.4971
                    CHANNELS 6 Xposition Yposition Zposition Zrotation Xrotation Yrotation
                    JOINT rRing2
                    {
                      OFFSET -3.7921 -1.552 1.4806
                      CHANNELS 6 Xposition Yposition Zposition Zrotation Xrotation Yrotation
                      JOINT rRing2_End
                      {
                        OFFSET -1.4655 -1.808 0.9609
                        CHANNELS 6 Xposition Yposition Zposition Zrotation Xrotation Yrotation
                        End Site
                        {
                          OFFSET -0.0147 -0.0181 0.0096
                        }
                      }
                    }
                  }
                  JOINT rPinky1
                  {
                    OFFSET -4.9141 -1.269 0.3592
                    CHANNELS 6 Xposition Yposition Zposition Zrotation Xrotation Yrotation
                    JOINT rPinky2
                    {
                      OFFSET -3.1477 -1.685 0.8462
                      CHANNELS 6 Xposition Yposition Zposition Zrotation Xrotation Yrotation
                      JOINT rPinky2_End
                      {
                        OFFSET -0.8055 -1.585 0.7955
                        CHANNELS 6 Xposition Yposition Zposition Zrotation Xrotation Yrotation
                        End Site
                        {
                          OFFSET -0.0081 -0.0158 0.008
                        }
                      }
                    }
                  }
                }
              }
            }
          }
        }
      }
    }
  }
  JOINT lThigh
  {
    OFFSET 8.367 -8.2066 0.5982
    CHANNELS 6 Xposition Yposition Zposition Zrotation Xrotation Yrotation
    JOINT lShin
    {
      OFFSET 2.1923 -43.463 -0.4932
      CHANNELS 6 Xposition Yposition Zposition Zrotation Xrotation Yrotation
      JOINT lFoot
      {
        OFFSET 0.7333 -45.8593 -2.6451
        CHANNELS 6 Xposition Yposition Zposition Zrotation Xrotation Yrotation
        End Site
        {
          OFFSET 2.6618 -4.2699 12.3931
        }
      }
    }
  }
  JOINT rThigh
  {
    OFFSET -8.367 -8.2066 0.5982
    CHANNELS 6 Xposition Yposition Zposition Zrotation Xrotation Yrotation
    JOINT rShin
    {
      OFFSET -2.1923 -43.463 -0.4931
      CHANNELS 6 Xposition Yposition Zposition Zrotation Xrotation Yrotation
      JOINT rFoot
      {
        OFFSET -0.7333 -45.8593 -2.6451
        CHANNELS 6 Xposition Yposition Zposition Zrotation Xrotation Yrotation
        End Site
        {
          OFFSET -2.6618 -4.2699 12.3931
        }
      }
    }
  }
}
MOTION
Frames:	4
Frame Time:	0.0333333
0 90.174 2.4664 0 0 -0 0 -1.186 -1.5018 0 0 -0 0 9.964 0.2134 0 0 -0 0 13.134 -3.2573 0 0 -0 0 20.686 -1.6905 0 0 -0 0 7.238 -0.1237 0 0 -0 1.7069 20.075 5.0056 0 0 -0 13.6458 -0.047 -4.849 1.66051 0.0835086 5.75766 28.3255 -0.9759 2.2888 -0.0175111 0.895433 15.7816 22.1583 -0.53 10.8316 7.95139e-016 -1.98785e-016 -0 0.786 0.112 2.5817 5.46658e-016 -3.97569e-016 -0 0.3601 -0.878 4.2331 5.96354e-016 0 -0 1.8127 -1.216 2.2227 3.97569e-016 1.98785e-016 9.54166e-015 0.9571 1.114 1.7695 1.49089e-016 -3.97569e-016 -0 4.1246 0.487 4.1451 6.4605e-016 0 3.18055e-015 3.4052 -1.454 2.7682 5.96354e-016 0 3.18055e-015 1.4531 -1.795 1.2713 8.94531e-016 -1.98785e-016 6.36111e-015 5.6954 0.21 2.1184 6.4605e-016 0 3.18055e-015 3.9766 -1.54 2.3863 5.96354e-016 0 3.18055e-015 1.4042 -1.926 1.125 8.94531e-016 -1.98785e-016 6.36111e-015 2.0956 0.66 -0.3894 1.49089e-016 -3.97569e-016 -0 5.0395 -0.09 2.4971 6.4605e-016 0 3.18055e-015 3.7921 -1.552 1.4806 5.96354e-016 0 3.18055e-015 1.4655 -1.808 0.9609 8.94531e-016 -1.98785e-016 6.36111e-015 4.9141 -1.269 0.3591 6.4605e-016 0 3.18055e-015 3.1477 -1.685 0.8462 5.96354e-016 0 3.18055e-015 0.8055 -1.585 0.7955 8.94531e-016 -1.98785e-016 6.36111e-015 -1.7069 20.075 5.0056 0 0 -0 -13.6458 -0.047 -4.849 -1.4496 0.0636048 -5.0245 -28.3255 -0.9759 2.2888 -1.74811 1.20616 -16.8394 -22.1583 -0.53 10.8316 -1.19271e-015 1.98785e-016 -3.18055e-015 -0.786 0.112 2.5817 -3.97569e-016 1.98785e-016 -3.18055e-015 -0.3601 -0.878 4.2331 -2.98177e-016 1.98785e-016 -3.18055e-015 -1.8127 -1.216 2.2227 -2.98177e-016 3.97569e-016 -0 -0.9571 1.114 1.7695 4.96962e-016 0 -6.36111e-015 -4.1246 0.487 4.1451 -9.93923e-017 3.97569e-016 -0 -3.4052 -1.454 2.7682 -8.94531e-016 5.96354e-016 -0 -1.4531 -1.795 1.2713 -3.97569e-016 3.97569e-016 -0 -5.6954 0.21 2.1184 -9.93923e-017 3.97569e-016 -0 -3.9766 -1.54 2.3863 -8.94531e-016 5.96354e-016 -0 -1.4042 -1.926 1.125 -3.97569e-016 3.97569e-016 -0 -2.0956 0.66 -0.3894 4.96962e-016 0 -6.36111e-015 -5.0395 -0.09 2.4971 -9.93923e-017 3.97569e-016 -0 -3.7921 -1.552 1.4806 -8.94531e-016 5.96354e-016 -0 -1.4655 -1.808 0.9609 -3.97569e-016 3.97569e-016 -0 -4.9141 -1.269 0.3592 -9.93923e-017 3.97569e-016 -0 -3.1477 -1.685 0.8462 -8.94531e-016 5.96354e-016 -0 -0.8055 -1.585 0.7955 -3.97569e-016 3.97569e-016 -0 8.367 -8.2066 0.5982 -4.66115 -1.03232 0.120763 2.1923 -43.463 -0.4932 0.00990601 1.55097 0.177175 0.7333 -45.8593 -2.6451 4.65196 -0.54114 -0.255042 -8.367 -8.2066 0.5982 4.66115 -1.03222 -0.120763 -2.1923 -43.463 -0.4931 -0.00990459 1.5509 -0.177176 -0.7333 -45.8593 -2.6451 -4.65196 -0.541171 0.255041 
-0.235503 89.0048 -62.5702 0 0 -0 0 -1.186 -1.5018 0 2.07373 -0 0 9.964 0.2134 0 4.14746 -0 0 13.134 -3.2573 0 4.14746 -0 0 20.686 -1.6905 0.00201553 11.1097 0.0286751 0 7.238 -0.1237 3.99158e-010 -1.67764e-006 2.65016e-010 1.7069 20.075 5.0056 6.74895 -11.3996 -19.1236 13.6458 -0.047 -4.849 33.6061 -42.8584 22.6258 28.3255 -0.9759 2.2888 12.2558 -4.63337 -78.7767 22.1583 -0.53 10.8316 6.88334 -21.063 -2.4631 0.786 0.112 2.5817 -1.59234e-006 -7.68583e-007 -2.96195e-006 0.3601 -0.878 4.2331 6.36111e-015 -3.18055e-015 3.57812e-015 1.8127 -1.216 2.2227 1.59234e-006 7.68583e-007 2.96195e-006 0.9571 1.114 1.7695 3.18055e-015 3.18055e-015 -1.19271e-015 4.1246 0.487 4.1451 -1.59234e-006 -7.68583e-007 -2.96195e-006 3.4052 -1.454 2.7682 1.27222e-014 -3.18055e-015 -3.97569e-016 1.4531 -1.795 1.2713 1.59234e-006 7.68583e-007 2.96195e-006 5.6954 0.21 2.1184 -1.59234e-006 -7.68583e-007 -2.96195e-006 3.9766 -1.54 2.3863 1.27222e-014 -3.18055e-015 -3.97569e-016 1.4042 -1.926 1.125 1.59234e-006 7.68583e-007 2.96195e-006 2.0956 0.66 -0.3894 3.18055e-015 3.18055e-015 -1.19271e-015 5.0395 -0.09 2.4971 -1.59234e-006 -7.68583e-007 -2.96195e-006 3.7921 -1.552 1.4806 1.27222e-014 -3.18055e-015 -3.97569e-016 1.4655 -1.808 0.9609 1.59234e-006 7.68583e-007 2.96195e-006 4.9141 -1.269 0.3591 -1.59234e-006 -7.68583e-007 -2.96195e-006 3.1477 -1.685 0.8462 1.27222e-014 -3.18055e-015 -3.97569e-016 0.8055 -1.585 0.7955 1.59234e-006 7.68583e-007 2.96195e-006 -1.7069 20.075 5.0056 2.21966 7.40635 -0.000421304 -13.6458 -0.047 -4.849 35.1313 21.8165 4.3453 -28.3255 -0.9759 2.2888 9.6724 -9.67647 16.344 -22.1583 -0.53 10.8316 -19.2602 -12.167 -1.99748 -0.786 0.112 2.5817 -2.56341e-006 2.72856e-007 1.22888e-006 -0.3601 -0.878 4.2331 -7.16482e-007 -3.58977e-007 -1.31527e-006 -1.8127 -1.216 2.2227 3.20017e-006 -7.23887e-007 3.38658e-007 -0.9571 1.114 1.7695 -1.19271e-015 0 -0 -4.1246 0.487 4.1451 -2.56341e-006 2.72856e-007 1.22888e-006 -3.4052 -1.454 2.7682 -7.16482e-007 -3.58977e-007 -1.31527e-006 -1.4531 -1.795 1.2713 3.20017e-006 -7.23887e-007 3.38658e-007 -5.6954 0.21 2.1184 -2.56341e-006 2.72856e-007 1.22888e-006 -3.9766 -1.54 2.3863 -7.16482e-007 -3.58977e-007 -1.31527e-006 -1.4042 -1.926 1.125 3.20017e-006 -7.23887e-007 3.38658e-007 -2.0956 0.66 -0.3894 -1.19271e-015 0 -0 -5.0395 -0.09 2.4971 -2.56341e-006 2.72856e-007 1.22888e-006 -3.7921 -1.552 1.4806 -7.16482e-007 -3.58977e-007 -1.31527e-006 -1.4655 -1.808 0.9609 3.20017e-006 -7.23887e-007 3.38658e-007 -4.9141 -1.269 0.3592 -2.56341e-006 2.72856e-007 1.22888e-006 -3.1477 -1.685 0.8462 -7.16482e-007 -3.58977e-007 -1.31527e-006 -0.8055 -1.585 0.7955 3.20017e-006 -7.23887e-007 3.38658e-007 8.367 -8.2066 0.5982 17.9409 -35.8752 19.9962 2.1923 -43.463 -0.4932 0.601647 73.599 2.05962 0.7333 -45.8593 -2.6451 5.23948 10.7294 1.01732 -8.367 -8.2066 0.5982 0.625308 -2.66579 -0.260144 -2.1923 -43.463 -0.4931 -0.0775959 4.20522 -1.36113 -0.7333 -45.8593 -2.6451 -5.56352 22.7676 1.43991 
-0.113315 88.1405 -91.908 0 0 -0 0 -1.186 -1.5018 0 3.00691 -0 0 9.964 0.2134 0 6.01381 -0 0 13.134 -3.2573 0 6.0138 -0 0 20.686 -1.6905 0.0020497 16.1093 -0.102502 0 7.238 -0.1237 7.85691e-009 -5.12328e-006 -8.52426e-010 1.7069 20.075 5.0056 7.29623 -15.4895 -28.2752 13.6458 -0.047 -4.849 62.731 -59.0893 41.7261 28.3255 -0.9759 2.2888 6.73703 -23.2356 -118.933 22.1583 -0.53 10.8316 9.42398 -30.322 -4.39692 0.786 0.112 2.5817 0 0 -1.59028e-015 0.3601 -0.878 4.2331 0 0 -3.18055e-015 1.8127 -1.216 2.2227 8.82781e-032 -3.18055e-015 1.59028e-015 0.9571 1.114 1.7695 0 0 -1.59028e-015 4.1246 0.487 4.1451 3.18055e-015 0 -0 3.4052 -1.454 2.7682 0 0 -3.18055e-015 1.4531 -1.795 1.2713 8.82781e-032 -3.18055e-015 1.59028e-015 5.6954 0.21 2.1184 3.18055e-015 0 -0 3.9766 -1.54 2.3863 0 0 -3.18055e-015 1.4042 -1.926 1.125 8.82781e-032 -3.18055e-015 1.59028e-015 2.0956 0.66 -0.3894 0 0 -1.59028e-015 5.0395 -0.09 2.4971 3.18055e-015 0 -0 3.7921 -1.552 1.4806 0 0 -3.18055e-015 1.4655 -1.808 0.9609 8.82781e-032 -3.18055e-015 1.59028e-015 4.9141 -1.269 0.3591 3.18055e-015 0 -0 3.1477 -1.685 0.8462 0 0 -3.18055e-015 0.8055 -1.585 0.7955 8.82781e-032 -3.18055e-015 1.59028e-015 -1.7069 20.075 5.0056 3.21855 10.7392 -0.000617856 -13.6458 -0.047 -4.849 48.9835 31.1583 9.72513 -28.3255 -0.9759 2.2888 18.3706 -11.2958 31.8292 -22.1583 -0.53 10.8316 -28.3215 -17.3575 -3.71869 -0.786 0.112 2.5817 8.15017e-015 2.38542e-015 -0 -0.3601 -0.878 4.2331 -8.92812e-008 -7.37995e-007 4.19877e-007 -1.8127 -1.216 2.2227 3.77691e-015 1.59028e-015 1.59028e-015 -0.9571 1.114 1.7695 -1.19271e-015 0 -1.59028e-015 -4.1246 0.487 4.1451 -5.36719e-015 2.38542e-015 9.54166e-015 -3.4052 -1.454 2.7682 -8.92812e-008 -7.37995e-007 4.19877e-007 -1.4531 -1.795 1.2713 -6.55989e-015 1.59028e-015 1.59028e-015 -5.6954 0.21 2.1184 -5.36719e-015 2.38542e-015 9.54166e-015 -3.9766 -1.54 2.3863 -8.92812e-008 -7.37995e-007 4.19877e-007 -1.4042 -1.926 1.125 -6.55989e-015 1.59028e-015 1.59028e-015 -2.0956 0.66 -0.3894 -1.19271e-015 0 -1.59028e-015 -5.0395 -0.09 2.4971 -5.36719e-015 2.38542e-015 9.54166e-015 -3.7921 -1.552 1.4806 -8.92812e-008 -7.37995e-007 4.19877e-007 -1.4655 -1.808 0.9609 -6.55989e-015 1.59028e-015 1.59028e-015 -4.9141 -1.269 0.3592 -5.36719e-015 2.38542e-015 9.54166e-015 -3.1477 -1.685 0.8462 -8.92812e-008 -7.37995e-007 4.19877e-007 -0.8055 -1.585 0.7955 -6.55989e-015 1.59028e-015 1.59028e-015 8.367 -8.2066 0.5982 39.2099 -49.8686 38.2532 2.1923 -43.463 -0.4932 178.788 73.5396 -173.862 0.7333 -45.8593 -2.6451 5.4782 16.4187 2.29451 -8.367 -8.2066 0.5982 -1.35662 -4.91988 -0.266242 -2.1923 -43.463 -0.4931 -0.112188 8.27718 -2.0409 -0.7333 -45.8593 -2.6451 -6.10738 31.8881 2.10566 
-0.159339 88.3489 -85.3843 0 0 -0 0 -1.186 -1.5018 0 2.79953 -0 0 9.964 0.2134 0 5.59906 -0 0 13.134 -3.2573 0 5.59906 -0 0 20.686 -1.6905 -3.00883e-005 14.9983 -0.393256 0 7.238 -0.1237 -1.347e-009 -3.30637e-006 -3.37751e-008 1.7069 20.075 5.0056 7.30064 -14.6673 -26.2037 13.6458 -0.047 -4.849 54.4613 -55.9677 35.7898 28.3255 -0.9759 2.2888 9.51781 -18.9269 -109.715 22.1583 -0.53 10.8316 9.07295 -28.3428 -3.89313 0.786 0.112 2.5817 4.61079e-007 -2.52184e-007 -6.69789e-007 0.3601 -0.878 4.2331 -3.18055e-015 3.18055e-015 7.15625e-015 1.8127 -1.216 2.2227 4.61079e-007 -2.52184e-007 -6.69789e-007 0.9571 1.114 1.7695 -1.59028e-015 3.18055e-015 4.77083e-015 4.1246 0.487 4.1451 4.61079e-007 -2.52184e-007 -6.69789e-007 3.4052 -1.454 2.7682 -4.77083e-015 3.18055e-015 7.95139e-015 1.4531 -1.795 1.2713 4.61079e-007 -2.52184e-007 -6.69789e-007 5.6954 0.21 2.1184 4.61079e-007 -2.52184e-007 -6.69789e-007 3.9766 -1.54 2.3863 -4.77083e-015 3.18055e-015 7.95139e-015 1.4042 -1.926 1.125 4.61079e-007 -2.52184e-007 -6.69789e-007 2.0956 0.66 -0.3894 -1.59028e-015 3.18055e-015 4.77083e-015 5.0395 -0.09 2.4971 4.61079e-007 -2.52184e-007 -6.69789e-007 3.7921 -1.552 1.4806 -4.77083e-015 3.18055e-015 7.95139e-015 1.4655 -1.808 0.9609 4.61079e-007 -2.52184e-007 -6.69789e-007 4.9141 -1.269 0.3591 4.61079e-007 -2.52184e-007 -6.69789e-007 3.1477 -1.685 0.8462 -4.77083e-015 3.18055e-015 7.95139e-015 0.8055 -1.585 0.7955 4.61079e-007 -2.52184e-007 -6.69789e-007 -1.7069 20.075 5.0056 2.99657 9.9986 -0.000574165 -13.6458 -0.047 -4.849 46.0773 29.1239 8.42264 -28.3255 -0.9759 2.2888 16.3198 -11.1828 28.3824 -22.1583 -0.53 10.8316 -26.2769 -16.2267 -3.2897 -0.786 0.112 2.5817 -3.06397e-006 -6.87286e-007 -4.64202e-007 -0.3601 -0.878 4.2331 7.79934e-008 -4.69696e-007 -2.60646e-006 -1.8127 -1.216 2.2227 -1.33186e-014 2.38542e-015 -0 -0.9571 1.114 1.7695 9.14409e-015 1.59028e-015 -1.59028e-015 -4.1246 0.487 4.1451 -3.06397e-006 -6.87286e-007 -4.64202e-007 -3.4052 -1.454 2.7682 7.79934e-008 -4.69696e-007 -2.60646e-006 -1.4531 -1.795 1.2713 -1.0138e-014 7.95139e-016 -1.59028e-015 -5.6954 0.21 2.1184 -3.06397e-006 -6.87286e-007 -4.64202e-007 -3.9766 -1.54 2.3863 7.79934e-008 -4.69696e-007 -2.60646e-006 -1.4042 -1.926 1.125 -1.0138e-014 7.95139e-016 -1.59028e-015 -2.0956 0.66 -0.3894 9.14409e-015 1.59028e-015 -1.59028e-015 -5.0395 -0.09 2.4971 -3.06397e-006 -6.87286e-007 -4.64202e-007 -3.7921 -1.552 1.4806 7.79934e-008 -4.69696e-007 -2.60646e-006 -1.4655 -1.808 0.9609 -1.0138e-014 7.95139e-016 -1.59028e-015 -4.9141 -1.269 0.3592 -3.06397e-006 -6.87286e-007 -4.64202e-007 -3.1477 -1.685 0.8462 7.79934e-008 -4.69696e-007 -2.60646e-006 -0.8055 -1.585 0.7955 -1.0138e-014 7.95139e-016 -1.59028e-015 8.367 -8.2066 0.5982 33.8302 -46.8661 33.6226 2.1923 -43.463 -0.4932 178.181 80.8318 -173.896 0.7333 -45.8593 -2.6451 5.43376 15.0569 1.91775 -8.367 -8.2066 0.5982 -0.902022 -4.37529 -0.266804 -2.1923 -43.463 -0.4931 -0.104884 7.29342 -1.8898 -0.7333 -45.8593 -2.6451 -5.98347 29.8963 1.94884 
